<svg xmlns="http://www.w3.org/2000/svg" width="36" height="36" viewBox="0 0 36 36" fill="none">
  <g clip-path="url(#clip0_1_9)">
    <g opacity="0.9">
      <path d="M9.66557 13.4172C9.95176 11.325 11.3902 9.82883 13.4972 9.68739C16.3137 9.48291 19.1404 9.45783 21.9601 9.61231C24.6929 9.77928 26.1377 11.2183 26.347 13.9691C26.548 16.6522 26.551 19.3464 26.356 22.03C26.1629 24.7171 24.7154 26.1484 22.0145 26.3412C19.3315 26.5339 16.6382 26.5361 13.9548 26.3478C11.1127 26.1463 9.69561 24.4757 9.53344 21.5585C9.46557 20.339 9.52203 19.1128 9.52203 17.8896M24.8442 18.2428C24.8442 16.8314 24.9181 15.4154 24.825 14.0085C24.7124 12.3 23.7163 11.2069 22.055 11.1442C19.3456 11.0415 16.6264 11.0415 13.9167 11.1442C12.2506 11.2069 11.195 12.3208 11.1425 13.9971C11.0596 16.627 11.0586 19.2588 11.1395 21.8927C11.1896 23.5537 12.0972 24.6664 13.7098 24.7522C16.5524 24.9037 19.401 24.9037 22.2436 24.7522C23.8652 24.6651 24.7148 23.5489 24.8442 21.9053" fill="#545454"/>
      <path d="M23.5337 13.3568C23.5561 13.9258 23.113 14.4051 22.5441 14.4275C22.5122 14.4287 22.4803 14.4285 22.4484 14.4268C21.9421 14.4246 21.5334 14.0123 21.5357 13.5059C21.5358 13.4655 21.5387 13.4251 21.5442 13.385C21.5301 12.885 21.9241 12.4683 22.4241 12.4542C22.4713 12.4529 22.5185 12.4553 22.5652 12.4613C23.0743 12.4359 23.5075 12.8279 23.5329 13.337C23.5333 13.3436 23.5335 13.3502 23.5337 13.3568Z" fill="#545454"/>
      <path d="M13.601 17.9575C13.6169 15.5427 15.5873 13.5979 18.0022 13.6137C20.417 13.6296 22.3618 15.6 22.346 18.0149C22.3301 20.4297 20.3597 22.3745 17.9448 22.3587C15.53 22.3428 13.5852 20.3724 13.601 17.9575ZM20.7865 17.9909C20.778 16.4375 19.5118 15.1851 17.9584 15.1937C16.4498 15.2019 15.2163 16.399 15.1629 17.9068C15.108 19.4592 16.3219 20.7622 17.8744 20.8172C19.4268 20.8721 20.7298 19.6582 20.7848 18.1058C20.7861 18.0675 20.7867 18.0292 20.7865 17.9909Z" fill="#545454"/>
    </g>
    <g opacity="0.9">
      <path d="M18 35.5C27.665 35.5 35.5 27.665 35.5 18C35.5 8.33502 27.665 0.5 18 0.5C8.33502 0.5 0.5 8.33502 0.5 18C0.5 27.665 8.33502 35.5 18 35.5Z" stroke="#545454" stroke-miterlimit="10"/>
    </g>
  </g>
  <defs>
    <clipPath id="clip0_1_9">
      <rect width="36" height="36" fill="white"/>
    </clipPath>
  </defs>
</svg>