<svg xmlns="http://www.w3.org/2000/svg" width="171" height="45" viewBox="0 0 171 45" fill="none">
  <g clip-path="url(#clip0_1_16)">
    <path d="M27.4716 17.0698C23.7057 17.0698 20.4842 18.3984 17.8095 21.0557C15.1324 23.7129 13.7951 26.8561 13.7951 30.4878C13.7951 34.1194 15.115 37.3011 17.7524 40.0342C20.3897 42.7673 23.5441 44.1332 27.213 44.1332H27.7301C31.4363 44.1332 34.5907 42.7772 37.1907 40.0628C39.7883 37.3496 41.0884 34.1666 41.0884 30.5164C41.0884 26.8661 39.761 23.7129 37.1037 21.0557C34.4465 18.3985 31.2349 17.0698 27.4716 17.0698ZM35.8137 39.0014C33.5193 41.3529 30.7577 42.5286 27.5287 42.5286C24.2973 42.5286 21.5083 41.3529 19.1568 39.0014C16.8053 36.6511 15.6295 33.8696 15.6295 30.6593C15.6295 27.4477 16.8053 24.6488 19.1568 22.2588C21.5083 19.8713 24.2898 18.6756 27.4989 18.6756C30.7105 18.6756 33.4721 19.8613 35.7863 22.2302C38.098 24.6016 39.2539 27.4005 39.2539 30.6307C39.2539 33.8609 38.108 36.6511 35.8137 39.0014Z" fill="#545454" stroke="#545454" stroke-miterlimit="10"/>
    <path d="M125.847 17.0698C122.081 17.0698 118.86 18.3984 116.185 21.0557C113.508 23.7129 112.17 26.8561 112.17 30.4878C112.17 34.1194 113.49 37.3011 116.128 40.0342C118.765 42.7673 121.919 44.1332 125.588 44.1332H126.105C129.812 44.1332 132.966 42.7772 135.566 40.0628C138.164 37.3496 139.464 34.1666 139.464 30.5164C139.464 26.8661 138.136 23.7129 135.479 21.0557C132.822 18.3985 129.61 17.0698 125.847 17.0698ZM134.189 39.0014C131.895 41.3529 129.133 42.5286 125.904 42.5286C122.673 42.5286 119.884 41.3529 117.532 39.0014C115.181 36.6511 114.005 33.8696 114.005 30.6593C114.005 27.4477 115.181 24.6488 117.532 22.2588C119.884 19.8713 122.665 18.6756 125.874 18.6756C129.086 18.6756 131.847 19.8613 134.162 22.2302C136.473 24.6016 137.629 27.4005 137.629 30.6307C137.629 33.8609 136.483 36.6511 134.189 39.0014Z" fill="#545454" stroke="#545454" stroke-miterlimit="10"/>
    <path d="M69.0289 21.0557C66.3716 18.3984 63.1601 17.0698 59.3967 17.0698C55.6308 17.0698 52.4094 18.3984 49.7347 21.0557C47.0576 23.7129 45.7202 26.8561 45.7202 30.4878C45.7202 34.1194 47.0402 37.3011 49.6775 40.0342C52.3149 42.7673 55.4692 44.1332 59.1382 44.1332H59.6552C63.3614 44.1332 66.5158 42.7772 69.1159 40.0628C69.8835 39.261 70.5237 38.4131 71.0647 37.5293V43.5031H72.8992V32.2441C72.967 31.6789 73.0135 31.106 73.0135 30.5164C73.0135 26.8661 71.6862 23.7129 69.0289 21.0557ZM67.7388 39.0014C65.4445 41.3529 62.6828 42.5286 59.4539 42.5286C56.2224 42.5286 53.4334 41.3529 51.0819 39.0014C48.7304 36.6511 47.5547 33.8696 47.5547 30.6593C47.5547 27.4477 48.7304 24.6488 51.0819 22.2588C53.4334 19.8713 56.215 18.6756 59.424 18.6756C62.6356 18.6756 65.3972 19.8613 67.7114 22.2302C70.0231 24.6016 71.179 27.4005 71.179 30.6307C71.179 33.8609 70.0331 36.6511 67.7388 39.0014Z" fill="#545454" stroke="#545454" stroke-miterlimit="10"/>
    <path d="M106.211 0.5H104.376V23.7092C103.804 22.7778 103.117 21.8894 102.283 21.0557C99.6262 18.3984 96.4146 17.0698 92.6513 17.0698C88.8854 17.0698 85.6638 18.3984 82.9892 21.0557C80.3121 23.7129 78.9748 26.8561 78.9748 30.4878C78.9748 34.1194 80.2947 37.3011 82.9321 40.0342C85.5694 42.7673 88.7238 44.1332 92.3927 44.1332H92.9098C96.616 44.1332 99.7703 42.7772 102.37 40.0628C104.968 37.3496 106.268 34.1666 106.268 30.5164C106.268 30.0972 106.246 29.6863 106.211 29.2803L106.211 0.5ZM100.993 39.0014C98.699 41.3529 95.9374 42.5286 92.7084 42.5286C89.477 42.5286 86.688 41.3529 84.3365 39.0014C81.985 36.6511 80.8092 33.8696 80.8092 30.6593C80.8092 27.4477 81.985 24.6488 84.3365 22.2588C86.688 19.8713 89.4695 18.6756 92.6786 18.6756C95.8902 18.6756 98.6518 19.8613 100.966 22.2302C103.278 24.6016 104.434 27.4005 104.434 30.6307C104.434 33.8609 103.288 36.6511 100.993 39.0014Z" fill="#545454" stroke="#545454" stroke-miterlimit="10"/>
    <path d="M2.32341 34.7334V0.5H0.5V34.7334C0.5 39.8553 4.66692 44.0218 9.78834 44.0218H10.3016V42.3696H9.78834C5.67201 42.3696 2.32341 38.8493 2.32341 34.7334Z" fill="#545454" stroke="#545454" stroke-miterlimit="10"/>
    <path d="M147.334 16.5533C147.334 12.4374 150.683 8.87669 154.799 8.87669H155.312V7.26488H154.799C149.677 7.26488 145.511 11.4313 145.511 16.5533V43.5031H147.334V35.1408H155.343V33.535H147.334V16.5533Z" fill="#545454" stroke="#545454" stroke-miterlimit="10"/>
    <path d="M170.351 33.535H162.342V16.5533C162.342 12.4374 165.691 8.87669 169.807 8.87669H170.32V7.26488H169.807C164.686 7.26488 160.519 11.4313 160.519 16.5533V43.5031H162.342V35.1408H170.351L170.351 33.535Z" fill="#545454" stroke="#545454" stroke-miterlimit="10"/>
  </g>
  <defs>
    <clipPath id="clip0_1_16">
      <rect width="170.851" height="44.6332" fill="white"/>
    </clipPath>
  </defs>
</svg>