<svg xmlns="http://www.w3.org/2000/svg" width="59" height="59" viewBox="0 0 59 59" fill="none">
  <g opacity="0.9">
    <path d="M29.1089 44.1547C37.262 44.1547 43.8715 37.5452 43.8715 29.3921C43.8715 21.2389 37.262 14.6295 29.1089 14.6295C20.9557 14.6295 14.3463 21.2389 14.3463 29.3921C14.3463 37.5452 20.9557 44.1547 29.1089 44.1547Z" stroke="#444444" stroke-width="2" stroke-miterlimit="10"/>
    <path d="M29.1089 7.85101V1.2832" stroke="#444444" stroke-width="2" stroke-linecap="round" stroke-linejoin="round"/>
    <path d="M18.3384 10.737L15.0544 5.04907" stroke="#444444" stroke-width="2" stroke-linecap="round" stroke-linejoin="round"/>
    <path d="M10.4538 18.6216L4.76587 15.3376" stroke="#444444" stroke-width="2" stroke-linecap="round" stroke-linejoin="round"/>
    <path d="M7.56781 29.3921H1" stroke="#444444" stroke-width="2" stroke-linecap="round" stroke-linejoin="round"/>
    <path d="M10.4538 40.1627L4.76587 43.4466" stroke="#444444" stroke-width="2" stroke-linecap="round" stroke-linejoin="round"/>
    <path d="M18.3384 48.0472L15.0544 53.7351" stroke="#444444" stroke-width="2" stroke-linecap="round" stroke-linejoin="round"/>
    <path d="M29.1089 50.9332V57.501" stroke="#444444" stroke-width="2" stroke-linecap="round" stroke-linejoin="round"/>
    <path d="M39.8794 48.0472L43.1633 53.7351" stroke="#444444" stroke-width="2" stroke-linecap="round" stroke-linejoin="round"/>
    <path d="M47.764 40.1627L53.4519 43.4466" stroke="#444444" stroke-width="2" stroke-linecap="round" stroke-linejoin="round"/>
    <path d="M50.65 29.3921H57.2178" stroke="#444444" stroke-width="2" stroke-linecap="round" stroke-linejoin="round"/>
    <path d="M47.764 18.6216L53.4519 15.3376" stroke="#444444" stroke-width="2" stroke-linecap="round" stroke-linejoin="round"/>
    <path d="M39.8794 10.737L43.1633 5.04907" stroke="#444444" stroke-width="2" stroke-linecap="round" stroke-linejoin="round"/>
  </g>
</svg>