<svg width="365" height="125" viewBox="0 0 365 125" fill="none" xmlns="http://www.w3.org/2000/svg">
<g clip-path="url(#clip0_1_74)">
<path d="M1 123.874C6.76237 122.688 22.5377 122.642 47.3283 105.527C70.768 89.3451 87.29 62.4756 114.551 36.5658C129.998 21.8852 148.018 6.90394 182.244 6.90338C216.474 6.90282 234.489 21.8843 249.937 36.5658C277.198 62.4756 293.72 89.3451 317.16 105.527C341.95 122.642 357.726 122.688 363.488 123.874" stroke="url(#paint0_radial_1_74)" stroke-width="2" stroke-linecap="round" stroke-linejoin="round"/>
<path opacity="0.9" d="M1 69.0138H363.488" stroke="#545454" stroke-linecap="round" stroke-linejoin="round"/>
<g opacity="0.9" filter="url(#filter0_d_1_74)">
<path d="M142.313 22.5058C146.12 22.5058 149.206 19.4195 149.206 15.6124C149.206 11.8053 146.12 8.71906 142.313 8.71906C138.505 8.71906 135.419 11.8053 135.419 15.6124C135.419 19.4195 138.505 22.5058 142.313 22.5058Z" stroke="#545454" stroke-width="2" stroke-miterlimit="10"/>
</g>
<g opacity="0.9">
<path d="M31.9112 37.5305V40.2685M31.9112 16.8328V19.5708M27.4213 36.3275L26.0523 38.6986M27.4213 20.7738L26.0523 18.4027M21.7633 34.4096L24.1344 33.0406M24.1344 24.0607L21.7633 22.6917M22.9313 28.5506H20.1934" stroke="#545454" stroke-linecap="round" stroke-linejoin="round"/>
<path d="M31.9112 22.3965C28.5124 22.3965 25.7571 25.1518 25.7571 28.5506C25.7571 31.9495 28.5124 34.7048 31.9112 34.7048" stroke="#545454" stroke-miterlimit="10"/>
<path d="M38.3886 22.6265V36.0826" stroke="#545454" stroke-miterlimit="10" stroke-linecap="round"/>
<path d="M35.0155 24.8183L38.0243 21.8095L38.4339 21.3998C38.6388 21.6047 38.8436 21.8095 38.8436 21.8095L41.8486 24.8145" stroke="#545454" stroke-linecap="round" stroke-linejoin="round"/>
</g>
<path d="M51.4355 35.6597V33.7677L47.4535 33.7567V32.7777L51.1935 27.5197H52.5135V32.8327H53.9325V33.7677H52.5135V35.6597H51.4355ZM48.5645 32.8327H51.4355V28.7847L48.5645 32.8327ZM56.2311 31.1497C56.0258 31.1497 55.8534 31.0801 55.7141 30.9407C55.5821 30.7941 55.5161 30.6254 55.5161 30.4347C55.5161 30.2367 55.5821 30.0681 55.7141 29.9287C55.8534 29.7894 56.0258 29.7197 56.2311 29.7197C56.4364 29.7197 56.6051 29.7894 56.7371 29.9287C56.8764 30.0681 56.9461 30.2367 56.9461 30.4347C56.9461 30.6327 56.8764 30.8014 56.7371 30.9407C56.6051 31.0801 56.4364 31.1497 56.2311 31.1497ZM56.2311 35.7697C56.0258 35.7697 55.8534 35.7001 55.7141 35.5607C55.5821 35.4141 55.5161 35.2454 55.5161 35.0547C55.5161 34.8567 55.5821 34.6881 55.7141 34.5487C55.8534 34.4094 56.0258 34.3397 56.2311 34.3397C56.4364 34.3397 56.6051 34.4094 56.7371 34.5487C56.8764 34.6881 56.9461 34.8567 56.9461 35.0547C56.9461 35.2527 56.8764 35.4214 56.7371 35.5607C56.6051 35.7001 56.4364 35.7697 56.2311 35.7697ZM58.6966 35.6597V34.9007L60.4786 33.2507C60.9772 32.7887 61.4136 32.3854 61.7876 32.0407C62.1689 31.6887 62.4659 31.3477 62.6786 31.0177C62.8912 30.6877 62.9976 30.3247 62.9976 29.9287C62.9976 29.5987 62.9169 29.3201 62.7556 29.0927C62.6016 28.8654 62.3999 28.6931 62.1506 28.5757C61.9086 28.4511 61.6556 28.3887 61.3916 28.3887C61.0469 28.3887 60.7646 28.4474 60.5446 28.5647C60.3246 28.6821 60.1559 28.8287 60.0386 29.0047C59.9212 29.1734 59.8369 29.3457 59.7856 29.5217C59.7342 29.6904 59.7049 29.8334 59.6976 29.9507C59.6902 30.0681 59.6866 30.1267 59.6866 30.1267H58.6526C58.6526 30.1267 58.6562 30.0607 58.6636 29.9287C58.6709 29.7967 58.6966 29.6281 58.7406 29.4227C58.7919 29.2174 58.8726 29.0011 58.9826 28.7737C59.0926 28.5391 59.2466 28.3191 59.4446 28.1137C59.6499 27.9084 59.9102 27.7397 60.2256 27.6077C60.5482 27.4757 60.9406 27.4097 61.4026 27.4097C61.8719 27.4097 62.3082 27.5087 62.7116 27.7067C63.1222 27.8974 63.4522 28.1797 63.7016 28.5537C63.9509 28.9204 64.0756 29.3714 64.0756 29.9067C64.0756 30.3981 63.9509 30.8454 63.7016 31.2487C63.4596 31.6447 63.1369 32.0334 62.7336 32.4147C62.3302 32.7961 61.8902 33.2067 61.4136 33.6467L60.2916 34.6807H64.2516V35.6597H58.6966ZM69.2246 35.6597V33.7677L65.2426 33.7567V32.7777L68.9826 27.5197H70.3026V32.8327H71.7216V33.7677H70.3026V35.6597H69.2246ZM66.3536 32.8327H69.2246V28.7847L66.3536 32.8327ZM78.2823 29.7197C78.649 29.7197 78.957 29.7784 79.2063 29.8957C79.4557 30.0131 79.6573 30.1524 79.8113 30.3137C79.9653 30.4677 80.0827 30.6144 80.1633 30.7537H80.2293V29.8297H81.2743V35.6597H80.2293V34.7357H80.1633C80.0827 34.8751 79.9653 35.0254 79.8113 35.1867C79.6573 35.3481 79.4557 35.4874 79.2063 35.6047C78.957 35.7147 78.649 35.7697 78.2823 35.7697C77.8423 35.7697 77.4573 35.6854 77.1273 35.5167C76.7973 35.3407 76.5223 35.1097 76.3023 34.8237C76.0823 34.5304 75.9173 34.2041 75.8073 33.8447C75.6973 33.4854 75.6423 33.1187 75.6423 32.7447C75.6423 32.3707 75.6973 32.0041 75.8073 31.6447C75.9173 31.2854 76.0823 30.9627 76.3023 30.6767C76.5223 30.3834 76.7973 30.1524 77.1273 29.9837C77.4573 29.8077 77.8423 29.7197 78.2823 29.7197ZM78.4583 30.6107C78.0697 30.6107 77.7433 30.7171 77.4793 30.9297C77.2153 31.1351 77.0173 31.3991 76.8853 31.7217C76.7607 32.0444 76.6983 32.3854 76.6983 32.7447C76.6983 33.0967 76.7607 33.4377 76.8853 33.7677C77.0173 34.0904 77.2153 34.3581 77.4793 34.5707C77.7433 34.7761 78.0697 34.8787 78.4583 34.8787C78.847 34.8787 79.1697 34.7761 79.4263 34.5707C79.6903 34.3581 79.8847 34.0904 80.0093 33.7677C80.1413 33.4377 80.2073 33.0967 80.2073 32.7447C80.2073 32.3854 80.1413 32.0444 80.0093 31.7217C79.8847 31.3991 79.6903 31.1351 79.4263 30.9297C79.1697 30.7171 78.847 30.6107 78.4583 30.6107ZM82.8099 35.6597V29.8297H83.8549V30.6767H83.8989C83.9576 30.5667 84.0493 30.4384 84.1739 30.2917C84.2986 30.1377 84.4673 30.0057 84.6799 29.8957C84.8999 29.7784 85.1749 29.7197 85.5049 29.7197C85.9376 29.7197 86.3006 29.8261 86.5939 30.0387C86.8946 30.2441 87.1183 30.5227 87.2649 30.8747H87.2759C87.4373 30.5521 87.6646 30.2807 87.9579 30.0607C88.2586 29.8334 88.6473 29.7197 89.1239 29.7197C89.7546 29.7197 90.2386 29.9361 90.5759 30.3687C90.9206 30.7941 91.0929 31.3441 91.0929 32.0187V35.6597H90.0479V32.0737C90.0479 31.6411 89.9453 31.2927 89.7399 31.0287C89.5346 30.7574 89.2376 30.6217 88.8489 30.6217C88.5116 30.6217 88.2403 30.7134 88.0349 30.8967C87.8369 31.0801 87.6939 31.3074 87.6059 31.5787C87.5179 31.8501 87.4739 32.1214 87.4739 32.3927V35.6597H86.4289V32.0737C86.4289 31.6411 86.3263 31.2927 86.1209 31.0287C85.9229 30.7574 85.6259 30.6217 85.2299 30.6217C84.8926 30.6217 84.6213 30.7134 84.4159 30.8967C84.2179 31.0801 84.0749 31.3111 83.9869 31.5897C83.8989 31.8611 83.8549 32.1287 83.8549 32.3927V35.6597H82.8099Z" fill="#545454"/>
<g opacity="0.9">
<path d="M286.506 37.3757V40.1136M286.506 16.678V19.4159M282.016 36.1726L280.647 38.5437M282.016 20.619L280.647 18.2479M276.358 34.2547L278.729 32.8857M278.729 23.9058L276.358 22.5369M277.526 28.3958H274.788" stroke="#545454" stroke-linecap="round" stroke-linejoin="round"/>
<path d="M286.506 22.2417C283.107 22.2417 280.352 24.997 280.352 28.3958C280.352 31.7946 283.107 34.5499 286.506 34.5499" stroke="#545454" stroke-miterlimit="10"/>
<path d="M293.07 34.7011V21.245" stroke="#545454" stroke-miterlimit="10" stroke-linecap="round"/>
<path d="M296.443 32.5093L293.435 35.5181L293.025 35.9278C292.82 35.723 292.615 35.5181 292.615 35.5181L289.61 32.5132" stroke="#545454" stroke-linecap="round" stroke-linejoin="round"/>
</g>
<path d="M303.134 29.2358V37.3758H302.078V31.0618L300.549 31.0728V30.4568L300.824 30.3688C301.213 30.2441 301.525 30.1085 301.759 29.9618C302.001 29.8151 302.225 29.6135 302.43 29.3568L302.529 29.2358H303.134ZM307.829 37.4858C307.257 37.4858 306.758 37.3831 306.333 37.1778C305.915 36.9651 305.588 36.6828 305.354 36.3308C305.119 35.9715 305.002 35.5681 305.002 35.1208C305.002 34.7248 305.071 34.3985 305.211 34.1418C305.35 33.8778 305.511 33.6688 305.695 33.5148C305.885 33.3535 306.05 33.2398 306.19 33.1738C306.329 33.1078 306.399 33.0748 306.399 33.0748V33.0198C306.399 33.0198 306.34 32.9941 306.223 32.9428C306.105 32.8841 305.966 32.7888 305.805 32.6568C305.651 32.5248 305.515 32.3488 305.398 32.1288C305.28 31.9088 305.222 31.6375 305.222 31.3148C305.222 30.8968 305.328 30.5228 305.541 30.1928C305.753 29.8628 306.054 29.6025 306.443 29.4118C306.839 29.2211 307.301 29.1258 307.829 29.1258C308.357 29.1258 308.815 29.2211 309.204 29.4118C309.6 29.6025 309.904 29.8628 310.117 30.1928C310.329 30.5228 310.436 30.8968 310.436 31.3148C310.436 31.6375 310.377 31.9088 310.26 32.1288C310.142 32.3488 310.003 32.5248 309.842 32.6568C309.688 32.7888 309.552 32.8841 309.435 32.9428C309.317 32.9941 309.259 33.0198 309.259 33.0198V33.0748C309.259 33.0748 309.328 33.1078 309.468 33.1738C309.607 33.2398 309.768 33.3535 309.952 33.5148C310.142 33.6688 310.307 33.8778 310.447 34.1418C310.586 34.3985 310.656 34.7248 310.656 35.1208C310.656 35.5681 310.538 35.9715 310.304 36.3308C310.069 36.6828 309.739 36.9651 309.314 37.1778C308.896 37.3831 308.401 37.4858 307.829 37.4858ZM307.829 32.6568C308.181 32.6568 308.474 32.5908 308.709 32.4588C308.943 32.3268 309.119 32.1581 309.237 31.9528C309.354 31.7475 309.413 31.5385 309.413 31.3258C309.413 31.0985 309.354 30.8821 309.237 30.6768C309.119 30.4715 308.943 30.3065 308.709 30.1818C308.474 30.0498 308.181 29.9838 307.829 29.9838C307.484 29.9838 307.191 30.0498 306.949 30.1818C306.714 30.3065 306.538 30.4715 306.421 30.6768C306.303 30.8821 306.245 31.0985 306.245 31.3258C306.245 31.5385 306.303 31.7475 306.421 31.9528C306.538 32.1581 306.714 32.3268 306.949 32.4588C307.191 32.5908 307.484 32.6568 307.829 32.6568ZM307.829 36.6168C308.225 36.6168 308.555 36.5398 308.819 36.3858C309.09 36.2318 309.292 36.0338 309.424 35.7918C309.563 35.5425 309.633 35.2858 309.633 35.0218C309.633 34.7651 309.567 34.5231 309.435 34.2958C309.303 34.0611 309.101 33.8705 308.83 33.7238C308.566 33.5698 308.232 33.4928 307.829 33.4928C307.425 33.4928 307.088 33.5698 306.817 33.7238C306.553 33.8705 306.355 34.0611 306.223 34.2958C306.091 34.5231 306.025 34.7651 306.025 35.0218C306.025 35.2858 306.091 35.5425 306.223 35.7918C306.362 36.0338 306.564 36.2318 306.828 36.3858C307.099 36.5398 307.433 36.6168 307.829 36.6168ZM312.886 32.8658C312.681 32.8658 312.509 32.7961 312.369 32.6568C312.237 32.5101 312.171 32.3415 312.171 32.1508C312.171 31.9528 312.237 31.7841 312.369 31.6448C312.509 31.5055 312.681 31.4358 312.886 31.4358C313.092 31.4358 313.26 31.5055 313.392 31.6448C313.532 31.7841 313.601 31.9528 313.601 32.1508C313.601 32.3488 313.532 32.5175 313.392 32.6568C313.26 32.7961 313.092 32.8658 312.886 32.8658ZM312.886 37.4858C312.681 37.4858 312.509 37.4161 312.369 37.2768C312.237 37.1301 312.171 36.9615 312.171 36.7708C312.171 36.5728 312.237 36.4041 312.369 36.2648C312.509 36.1255 312.681 36.0558 312.886 36.0558C313.092 36.0558 313.26 36.1255 313.392 36.2648C313.532 36.4041 313.601 36.5728 313.601 36.7708C313.601 36.9688 313.532 37.1375 313.392 37.2768C313.26 37.4161 313.092 37.4858 312.886 37.4858ZM318.036 37.4858C317.574 37.4858 317.178 37.4271 316.848 37.3098C316.525 37.1851 316.257 37.0275 316.045 36.8368C315.839 36.6461 315.674 36.4445 315.55 36.2318C315.432 36.0191 315.344 35.8175 315.286 35.6268C315.234 35.4361 315.201 35.2821 315.187 35.1648C315.172 35.0401 315.165 34.9778 315.165 34.9778H316.177C316.177 34.9778 316.184 35.0328 316.199 35.1428C316.213 35.2455 316.25 35.3775 316.309 35.5388C316.375 35.6928 316.474 35.8505 316.606 36.0118C316.738 36.1658 316.917 36.2978 317.145 36.4078C317.379 36.5105 317.676 36.5618 318.036 36.5618C318.461 36.5618 318.813 36.4701 319.092 36.2868C319.37 36.1035 319.579 35.8688 319.719 35.5828C319.858 35.2968 319.928 34.9961 319.928 34.6808C319.928 34.3581 319.858 34.0501 319.719 33.7568C319.579 33.4561 319.37 33.2141 319.092 33.0308C318.82 32.8401 318.483 32.7448 318.08 32.7448C317.764 32.7448 317.5 32.7961 317.288 32.8988C317.075 33.0015 316.906 33.1188 316.782 33.2508C316.664 33.3828 316.58 33.5001 316.529 33.6028C316.477 33.7055 316.452 33.7568 316.452 33.7568H315.396L316.034 29.2358H320.412V30.1928H316.837L316.507 32.5248H316.54C316.628 32.4295 316.738 32.3305 316.87 32.2278C317.009 32.1178 317.189 32.0261 317.409 31.9528C317.629 31.8721 317.904 31.8318 318.234 31.8318C318.835 31.8318 319.337 31.9711 319.741 32.2498C320.144 32.5211 320.448 32.8731 320.654 33.3058C320.866 33.7311 320.973 34.1821 320.973 34.6588C320.973 35.0108 320.91 35.3555 320.786 35.6928C320.668 36.0301 320.489 36.3345 320.247 36.6058C320.005 36.8698 319.7 37.0825 319.334 37.2438C318.967 37.4051 318.534 37.4858 318.036 37.4858ZM325.595 37.4858C325.074 37.4858 324.619 37.3868 324.231 37.1888C323.849 36.9908 323.534 36.7195 323.285 36.3748C323.035 36.0228 322.848 35.6231 322.724 35.1758C322.606 34.7285 322.548 34.2591 322.548 33.7678C322.548 33.3645 322.592 32.9465 322.68 32.5138C322.768 32.0811 322.903 31.6631 323.087 31.2598C323.277 30.8565 323.527 30.4971 323.835 30.1818C324.15 29.8591 324.528 29.6025 324.968 29.4118C325.415 29.2211 325.936 29.1258 326.53 29.1258C326.764 29.1258 326.977 29.1405 327.168 29.1698C327.366 29.1918 327.523 29.2175 327.641 29.2468C327.758 29.2761 327.817 29.2908 327.817 29.2908V30.2808C327.817 30.2808 327.751 30.2661 327.619 30.2368C327.487 30.2075 327.318 30.1818 327.113 30.1598C326.915 30.1305 326.713 30.1158 326.508 30.1158C326.06 30.1158 325.675 30.1855 325.353 30.3248C325.037 30.4568 324.77 30.6365 324.55 30.8638C324.337 31.0838 324.165 31.3258 324.033 31.5898C323.908 31.8465 323.816 32.1031 323.758 32.3598C323.699 32.6091 323.666 32.8255 323.659 33.0088C323.71 32.9208 323.813 32.7998 323.967 32.6458C324.121 32.4918 324.337 32.3525 324.616 32.2278C324.894 32.1031 325.25 32.0408 325.683 32.0408C326.284 32.0408 326.783 32.1728 327.179 32.4368C327.575 32.6935 327.872 33.0271 328.07 33.4378C328.275 33.8485 328.378 34.2811 328.378 34.7358C328.378 35.1905 328.275 35.6305 328.07 36.0558C327.864 36.4738 327.556 36.8185 327.146 37.0898C326.735 37.3538 326.218 37.4858 325.595 37.4858ZM325.573 36.5618C325.866 36.5618 326.145 36.4958 326.409 36.3638C326.68 36.2318 326.9 36.0338 327.069 35.7698C327.245 35.4985 327.333 35.1648 327.333 34.7688C327.333 34.3655 327.245 34.0318 327.069 33.7678C326.9 33.4965 326.68 33.2948 326.409 33.1628C326.145 33.0308 325.866 32.9648 325.573 32.9648C325.279 32.9648 324.997 33.0308 324.726 33.1628C324.462 33.2948 324.242 33.4965 324.066 33.7678C323.897 34.0318 323.813 34.3655 323.813 34.7688C323.813 35.1648 323.897 35.4985 324.066 35.7698C324.242 36.0338 324.462 36.2318 324.726 36.3638C324.997 36.4958 325.279 36.5618 325.573 36.5618ZM332.614 39.5318V31.5458H333.659V32.4698H333.725C333.813 32.3305 333.931 32.1801 334.077 32.0188C334.231 31.8575 334.433 31.7218 334.682 31.6118C334.932 31.4945 335.24 31.4358 335.606 31.4358C336.046 31.4358 336.431 31.5238 336.761 31.6998C337.091 31.8685 337.366 32.0995 337.586 32.3928C337.806 32.6788 337.971 33.0015 338.081 33.3608C338.191 33.7201 338.246 34.0868 338.246 34.4608C338.246 34.8348 338.191 35.2015 338.081 35.5608C337.971 35.9201 337.806 36.2465 337.586 36.5398C337.366 36.8258 337.091 37.0568 336.761 37.2328C336.431 37.4015 336.046 37.4858 335.606 37.4858C335.24 37.4858 334.932 37.4271 334.682 37.3098C334.433 37.1925 334.231 37.0531 334.077 36.8918C333.931 36.7305 333.813 36.5838 333.725 36.4518H333.659V39.5318H332.614ZM333.681 34.4608C333.681 34.8128 333.744 35.1538 333.868 35.4838C334 35.8065 334.195 36.0741 334.451 36.2868C334.715 36.4921 335.042 36.5948 335.43 36.5948C335.826 36.5948 336.153 36.4921 336.409 36.2868C336.673 36.0741 336.868 35.8065 336.992 35.4838C337.124 35.1538 337.19 34.8128 337.19 34.4608C337.19 34.1015 337.124 33.7605 336.992 33.4378C336.868 33.1151 336.673 32.8511 336.409 32.6458C336.153 32.4331 335.826 32.3268 335.43 32.3268C335.042 32.3268 334.715 32.4331 334.451 32.6458C334.195 32.8511 334 33.1151 333.868 33.4378C333.744 33.7605 333.681 34.1015 333.681 34.4608ZM339.68 37.3758V31.5458H340.725V32.3928H340.769C340.828 32.2828 340.919 32.1545 341.044 32.0078C341.169 31.8538 341.337 31.7218 341.55 31.6118C341.77 31.4945 342.045 31.4358 342.375 31.4358C342.808 31.4358 343.171 31.5421 343.464 31.7548C343.765 31.9601 343.988 32.2388 344.135 32.5908H344.146C344.307 32.2681 344.535 31.9968 344.828 31.7768C345.129 31.5495 345.517 31.4358 345.994 31.4358C346.625 31.4358 347.109 31.6521 347.446 32.0848C347.791 32.5101 347.963 33.0601 347.963 33.7348V37.3758H346.918V33.7898C346.918 33.3571 346.815 33.0088 346.61 32.7448C346.405 32.4735 346.108 32.3378 345.719 32.3378C345.382 32.3378 345.11 32.4295 344.905 32.6128C344.707 32.7961 344.564 33.0235 344.476 33.2948C344.388 33.5661 344.344 33.8375 344.344 34.1088V37.3758H343.299V33.7898C343.299 33.3571 343.196 33.0088 342.991 32.7448C342.793 32.4735 342.496 32.3378 342.1 32.3378C341.763 32.3378 341.491 32.4295 341.286 32.6128C341.088 32.7961 340.945 33.0271 340.857 33.3058C340.769 33.5771 340.725 33.8448 340.725 34.1088V37.3758H339.68Z" fill="#545454"/>
</g>
<defs>
<filter id="filter0_d_1_74" x="129.855" y="3.15486" width="24.9151" height="24.9151" filterUnits="userSpaceOnUse" color-interpolation-filters="sRGB">
<feFlood flood-opacity="0" result="BackgroundImageFix"/>
<feColorMatrix in="SourceAlpha" type="matrix" values="0 0 0 0 0 0 0 0 0 0 0 0 0 0 0 0 0 0 127 0" result="hardAlpha"/>
<feOffset/>
<feGaussianBlur stdDeviation="2.2821"/>
<feColorMatrix type="matrix" values="0 0 0 0 0.329412 0 0 0 0 0.329412 0 0 0 0 0.329412 0 0 0 0.7 0"/>
<feBlend mode="normal" in2="BackgroundImageFix" result="effect1_dropShadow_1_74"/>
<feBlend mode="normal" in="SourceGraphic" in2="effect1_dropShadow_1_74" result="shape"/>
</filter>
<radialGradient id="paint0_radial_1_74" cx="0" cy="0" r="1" gradientUnits="userSpaceOnUse" gradientTransform="translate(182.243 65.3884) scale(134.938 140.145)">
<stop offset="0.28285" stop-color="white"/>
<stop offset="0.30574" stop-color="white"/>
<stop offset="0.43851" stop-color="white"/>
<stop offset="0.76435" stop-color="#666666"/>
<stop offset="0.90377" stop-color="#666666"/>
</radialGradient>
<clipPath id="clip0_1_74">
<rect width="364.488" height="124.874" fill="white"/>
</clipPath>
</defs>
</svg>
