<svg xmlns="http://www.w3.org/2000/svg" width="36" height="36" viewBox="0 0 36 36" fill="none">
  <g clip-path="url(#clip0_1_6)">
    <path opacity="0.9" d="M9.95997 9.52017C11.5683 9.52017 13.0537 9.50248 14.5379 9.54271C14.7197 9.54785 14.9289 9.84178 15.0653 10.0415C16.3266 11.8942 17.5765 13.7556 18.8847 15.6999C20.1495 14.2048 21.3594 12.7745 22.5694 11.3437C22.8915 11.0086 23.1885 10.6503 23.458 10.2715C23.9069 9.54728 24.5162 9.35665 25.4211 9.60064C25.2182 9.86118 25.0476 10.0955 24.8618 10.3175C23.2189 12.2777 21.5869 14.2482 19.9163 16.1844C19.569 16.5874 19.6181 16.8408 19.8898 17.2403C21.7792 20.015 23.6447 22.8051 25.5164 25.5929C25.6591 25.8038 25.7912 26.0209 26.0401 26.4096C25.2088 26.4096 24.4948 26.316 23.8142 26.4279C21.9242 26.7366 20.7036 26.0569 19.8059 24.3349C19.0017 22.7925 17.887 21.4113 16.85 19.8706C16.4844 20.2986 16.1711 20.6605 15.8623 21.0266C14.5627 22.5676 13.2295 24.0801 11.9813 25.6622C11.4599 26.3223 10.9051 26.5594 10.0068 26.3157C10.4811 25.735 10.92 25.1845 11.3731 24.6457C12.8345 22.9032 14.2853 21.1525 15.7741 19.4342C16.1277 19.0262 16.1451 18.7576 15.8375 18.3099C14.0122 15.6479 12.2232 12.9617 10.424 10.2818C10.2853 10.0755 10.1646 9.85748 9.95997 9.52017ZM23.9897 25.3737C23.9768 25.2799 23.9541 25.1878 23.9218 25.0989C20.7073 20.3929 17.4892 15.6894 14.2674 10.9884C14.1592 10.8224 13.9904 10.7052 13.7971 10.6619C13.1978 10.6228 12.5968 10.6465 11.9656 10.6465C11.9828 10.7353 12.0084 10.8222 12.042 10.9062C15.2572 15.6126 18.4754 20.316 21.6965 25.0164C21.8258 25.1978 22.0215 25.3208 22.2409 25.3589C22.798 25.4042 23.3613 25.3748 23.9897 25.3748" fill="#545454"/>
    <path opacity="0.9" d="M18 35.5C27.665 35.5 35.5 27.665 35.5 18C35.5 8.33502 27.665 0.5 18 0.5C8.33502 0.5 0.5 8.33502 0.5 18C0.5 27.665 8.33502 35.5 18 35.5Z" stroke="#545454" stroke-miterlimit="10"/>
  </g>
  <defs>
    <clipPath id="clip0_1_6">
      <rect width="36" height="36" fill="white"/>
    </clipPath>
  </defs>
</svg>